<?xml version="1.0" encoding="UTF-8"?>
<svg viewBox="0 0 500 500" xmlns="http://www.w3.org/2000/svg">
 <defs>
  <linearGradient id="a">
   <stop stop-color="#fff" stop-opacity=".4" offset="0"/>
   <stop stop-color="#fff" stop-opacity=".1" offset="1"/>
  </linearGradient>
 </defs>
 <path d="m344.12 71.988c-0.78564 0.03119-1.4404 0.17924-2 0.4375-17.906 8.2645 9.625 99.156 9.625 99.156s-279.6-5.512-292 1.375-12.459 166.46-0.0625 173.34 292.03 1.375 292.03 1.375-27.563 90.923-9.6562 99.188c17.521 8.0868 149.69-97.252 151.5-184.38h0.0625c0.08884-1.8952 0.00846-3.8045-0.03125-5.7188-1.7497-84.34-125.65-185.73-149.47-184.78z" fill-opacity=".25" fill-rule="evenodd"/>
 <path d="m332.59 67.067c-0.78564 0.03119-1.4404 0.17924-2 0.4375-17.906 8.2645 9.625 99.156 9.625 99.156s-279.6-5.512-292 1.375-12.459 166.46-0.0625 173.34 292.03 1.375 292.03 1.375-27.563 90.923-9.6562 99.188c17.521 8.0868 149.69-97.252 151.5-184.38h0.0625c0.08884-1.8952 0.00846-3.8045-0.03125-5.7188-1.7497-84.34-125.65-185.73-149.47-184.78z" fill="#00f" fill-rule="evenodd" stroke="#000" stroke-linejoin="round" stroke-width="10"/>
 <path d="m53.719 176.31c-8.2645 17.906-15.152 118.46 4.1322 157.02 6.887 1.3774 61.983-75.758 231.4-67.493-159.78-20.661-235.54-89.532-235.54-89.532z" fill="url(#a)" fill-rule="evenodd"/>
</svg>
