<?xml version="1.0" encoding="UTF-8"?>
<svg viewBox="0 0 500 500" xmlns="http://www.w3.org/2000/svg">
 <defs>
  <linearGradient id="a">
   <stop stop-color="#fff" stop-opacity=".4" offset="0"/>
   <stop stop-color="#fff" stop-opacity=".1" offset="1"/>
  </linearGradient>
 </defs>
 <path d="m191.69 441.79c0.78564-0.03119 1.4404-0.17924 2-0.4375 17.906-8.2645-9.625-99.156-9.625-99.156s279.6 5.512 292-1.375 12.459-166.46 0.0625-173.34-292.03-1.375-292.03-1.375 27.563-90.923 9.6562-99.188c-17.521-8.0868-149.69 97.252-151.5 184.38h-0.0625c-0.08884 1.8952-0.00846 3.8045 0.03125 5.7188 1.7497 84.34 125.65 185.73 149.47 184.78z" fill-opacity=".25" fill-rule="evenodd"/>
 <path d="m176.03 431.35c0.78564-0.03119 1.4404-0.17924 2-0.4375 17.906-8.2645-9.625-99.156-9.625-99.156s279.6 5.512 292-1.375 12.459-166.46 0.0625-173.34-292.03-1.375-292.03-1.375 27.563-90.923 9.6562-99.188c-17.521-8.0868-149.69 97.252-151.5 184.38h-0.0625c-0.08884 1.8952-0.00846 3.8045 0.03125 5.7188 1.7497 84.34 125.65 185.73 149.47 184.78z" fill="#00f" fill-rule="evenodd" stroke="#000" stroke-linejoin="round" stroke-width="10"/>
 <path d="m176.31 61.983c-16.529-5.5096-151.52 101.93-144.63 188.71s129.48 177.69 139.12 173.55c17.906-6.887-2.7548-77.135-9.6419-95.041 2.7548-8.2645-5.5096-70.248 85.399-73.003-101.93-33.058-77.135-92.286-86.777-99.174 12.397-39.945 20.661-86.777 16.529-95.041z" fill="url(#a)" fill-rule="evenodd"/>
</svg>
